# xmcd CD database file
#
# Track frame offsets:
#	150
#	10240
#	23394
#	45242
#	56026
#
# Disc length: 887 seconds
#
# Revision: 0
# Processed by: cddbd v1.5.1PL2 Copyright (c) Steve Scherf et al.
# Submitted via: CDex 1.51
#
DISCID=2c037505
DTITLE=The Greenhornes - Pattern Skies
DYEAR=2005
DGENRE=Blues
TTITLE0=Pattern Skies
TTITLE1=I'm Going Away
TTITLE2=Shelter Of Your Arms
TTITLE3=At Night
TTITLE4=Shine Like The Sun
EXTD=YEAR: 2005
EXTT0=
EXTT1=
EXTT2=
EXTT3=
EXTT4=
PLAYORDER=
